<svg xmlns="http://www.w3.org/2000/svg" enable-background="new 0 0 450 450" viewBox="0 0 450 450" height="220" width="220"><path fill="#1a3a49" d="M10.246 392.863h429.508v4H10.246z"/><path fill="#a7abc6" d="M76.29 53.137h152.822c10.992 0 19.903 8.91 19.903 19.903v299.896c0 10.992-8.91 19.904-19.903 19.904H76.29c-10.993 0-19.904-8.912-19.904-19.904V73.04c0-10.992 8.911-19.903 19.904-19.903z"/><path fill="#d7daf4" d="M81.278 53.137h152.82c10.993 0 19.904 8.91 19.904 19.903v299.896c0 10.992-8.91 19.904-19.903 19.904H81.278c-10.993 0-19.904-8.912-19.904-19.904V73.04c0-10.992 8.911-19.903 19.904-19.903z"/><path fill="#fff" d="M74.372 357.735c-.005 0-.01-.004-.01-.008V88.244h166.652v269.49H74.372z"/><circle cx="157.688" cy="67.678" r="4.331" fill="#fff"/><path fill="#fff" d="M174.24 78.216c0 .621-.257 1.193-.665 1.6a2.263 2.263 0 0 1-1.6.658h-28.58a2.254 2.254 0 0 1-2.258-2.258c0-.622.25-1.194.657-1.6a2.269 2.269 0 0 1 1.6-.665h28.58a2.266 2.266 0 0 1 2.266 2.265z"/><circle cx="157.688" cy="375.827" r="8.12" fill="#fff"/><path fill="#f9dae0" d="M218.74 176.808c0 23.73-14.022 44.173-34.237 53.507-7.503 3.467-15.86 5.396-24.666 5.396-2.946 0-5.843-.22-8.675-.635a58.727 58.727 0 0 1-7.227-1.538c-24.804-6.934-43-29.704-43-56.73 0-17.138 7.316-32.568 19.002-43.326a57.217 57.217 0 0 1 3.556-3.027 59.575 59.575 0 0 1 4.687-3.337c.228-.138.464-.285.692-.423 8.993-5.575 19.604-8.789 30.965-8.789 9.09 0 17.7 2.059 25.382 5.737a58.34 58.34 0 0 1 11.914 7.577 51.579 51.579 0 0 1 2.572 2.23 60.408 60.408 0 0 1 3.808 3.833c9.465 10.457 15.226 24.316 15.226 39.525z"/><path fill="#0e1738" d="m184.926 211.712-.13 5.81-.293 12.793c-7.503 3.467-15.86 5.396-24.666 5.396-2.946 0-5.843-.22-8.675-.635a58.727 58.727 0 0 1-7.227-1.538v-15.25a102.988 102.988 0 0 1 5.29-3.402 77.092 77.092 0 0 1 4.159-2.336c5.688-2.978 11.238-4.883 16.568-5.167 5.225-.269 10.23 1 14.974 4.33z"/><path fill="#06112d" d="M151.162 235.076a58.727 58.727 0 0 1-7.227-1.538v-15.25a102.988 102.988 0 0 1 5.29-3.402l.09 3.898.252 11.01a10.14 10.14 0 0 0 1.595 5.282z"/><path fill="#47adf7" d="M185.076 217.582c-5.341-.873-10.578-6.59-16.587-5.973-6.01.616-18.337 12.79-32.05 4.469-13.714-8.321-16.745-43.607 11.505-47.819 23.476-3.5 32.101-2.26 43.812 8.834s11.055 43.388-6.68 40.489z"/><path fill="#218ae5" d="M196.81 211.776c-2.355 4.203-6.22 6.705-11.735 5.806-5.338-.876-10.577-6.59-16.586-5.973-6.01.616-18.337 12.79-32.05 4.469-12.512-7.594-16.13-37.628 4.789-46.036-11.822 10.811-8.765 32.636 1.158 39.274 12.82 8.568 25.203-2.539 31.009-2.86 5.8-.326 10.582 5.375 15.68 6.448 3.063.64 5.633.16 7.735-1.128z"/><ellipse cx="190.737" cy="133.557" fill="#218ae5" rx="7.682" ry="13.101" transform="rotate(-10.959 190.737 133.557)"/><ellipse cx="188.974" cy="133.396" fill="#585d83" rx="4.338" ry="7.398" transform="rotate(-10.959 188.974 133.396)"/><path fill="#06112d" d="M197.031 146.298c4.165-.806 6.427-7.219 5.051-14.322-1.375-7.104-5.867-12.209-10.032-11.402l-3.804.121c4.166-.806 8.657 4.299 10.033 11.402 1.375 7.104-.886 13.516-5.051 14.323l3.803-.122z"/><path fill="#0e1738" d="M170.162 166.23c0 3.02-2.41 5.01-5.585 5.966h-.006c-6.095 1.83-14.983-.16-14.983-5.967v-8.32h20.568l.006 8.32z"/><path fill="#06112d" d="M164.571 172.196c-6.095 1.83-14.983-.16-14.983-5.967v-8.32h6.25c-1.048 3.5-2.73 12.875 8.733 14.287z"/><ellipse cx="160.22" cy="135.794" fill="#47adf7" rx="37.443" ry="27.274"/><ellipse cx="127.405" cy="139.63" fill="#218ae5" rx="7.682" ry="13.101" transform="rotate(-9.131 127.405 139.63)"/><ellipse cx="127.405" cy="139.63" fill="#47adf7" rx="4.338" ry="7.398" transform="rotate(-9.131 127.405 139.63)"/><path fill="#06112d" d="M133.29 152.565c4.188-.674 6.653-7.01 5.505-14.155s-5.475-12.389-9.664-11.716h-3.805c4.188-.673 8.515 4.573 9.663 11.716 1.148 7.144-1.316 13.481-5.505 14.155h3.805z"/><path fill="#0e1738" d="M158.17 141.576c-3.216 0-6.656-.136-10.312-.456-3.732-.327-6.51-3.832-6.204-7.83.305-3.996 3.568-6.836 7.31-6.644 20.578 1.058 31.214-2.277 31.339-2.328 3.497-1.433 7.501.923 8.84 4.668 1.338 3.745-.412 7.943-3.91 9.376-.53.218-8.893 3.214-27.063 3.214z"/><path fill="#82cafa" d="M185.034 131.738a4.365 4.365 0 0 1-4.37 4.364 4.364 4.364 0 0 1-4.364-4.364 4.366 4.366 0 1 1 8.734 0z"/><path fill="#fff" d="M182.723 131.737a2.055 2.055 0 0 1-4.111 0 2.055 2.055 0 1 1 4.11 0z"/><path fill="#82cafa" d="M161.29 134.05a4.365 4.365 0 0 1-4.37 4.364 4.364 4.364 0 0 1-4.364-4.364 4.366 4.366 0 1 1 8.734 0z"/><path fill="#fff" d="M158.978 134.048a2.055 2.055 0 0 1-4.11 0 2.055 2.055 0 1 1 4.11 0z"/><path fill="#0e1738" d="M163.375 148.86c.64 3.546 3.932 6.013 7.545 5.545 3.612-.469 6.167-3.694 5.88-7.285l-13.425 1.74z"/><circle cx="168.969" cy="189.575" r="10.118" fill="#0e1738"/><circle cx="168.969" cy="189.575" r="7.55" fill="#fe6081"/><circle cx="168.969" cy="189.575" r="4.043" fill="#fff"/><path fill="#82cafa" d="M228.224 272.013v18.926H106.08c-10.447 0-18.927-8.467-18.927-18.926 0-5.236 2.117-9.958 5.55-13.39a18.867 18.867 0 0 1 13.377-5.537h103.219c10.446 0 18.926 8.468 18.926 18.927z"/><path fill="#218ae5" d="M127.578 264.059h83.688v1.979h-83.688zM127.578 271.024h83.688v1.979h-83.688zM127.578 277.988h29.702v1.979h-29.702zM162.791 277.988h7.49v1.979h-7.49zM174.804 277.988h16.394v1.979h-16.394z"/><circle cx="108.193" cy="272.013" r="12.048" fill="#0c8ff9"/><circle cx="108.193" cy="267.889" r="2.644" fill="#fff"/><path fill="#fff" d="M114.87 277.984c-.058-3.643-3.02-6.58-6.677-6.58-3.658 0-6.62 2.937-6.678 6.58h13.356z"/><path fill="#fe6081" d="M87.152 319.977v18.926h122.146c10.446 0 18.926-8.468 18.926-18.926 0-5.236-2.117-9.958-5.549-13.39a18.867 18.867 0 0 0-13.377-5.537h-103.22c-10.446 0-18.926 8.468-18.926 18.927z"/><path fill="#b94768" d="M104.111 312.022h83.688v1.979h-83.688z" transform="rotate(-180 145.955 313.012)"/><path fill="#b94768" d="M104.111 318.987h83.688v1.979h-83.688z" transform="rotate(-180 145.955 319.977)"/><path fill="#b94768" d="M158.097 325.952h29.702v1.979h-29.702zM145.095 325.952h7.49v1.979h-7.49zM124.179 325.952h16.394v1.979h-16.394z"/><circle cx="207.184" cy="319.977" r="12.048" fill="#b94768"/><circle cx="207.184" cy="315.853" r="2.644" fill="#fff"/><path fill="#fff" d="M200.506 325.948c.059-3.643 3.02-6.58 6.678-6.58 3.657 0 6.619 2.937 6.678 6.58h-13.356z"/><path fill="#fec3bd" d="M275.98 311.524c4.192-.716 22.627-17.992 22.627-17.992l-9.134-14.8s-18.932 2.105-20.263 5.12c-1.308 2.986 8.063 3.316 8.063 3.316-1.75.9-14.75 7.609-11.923 10.1 1.025.905 4.264.57 5.51.123-3.237 2.294-7.24 6.427-5.924 7.726 1.83 1.808 5.694-1.08 6.998-2.149-1.291 1.139-4.877 4.58-2.724 5.978 1.31.852 4.53-1.539 6.106-2.517-.877 1.117-2.067 5.565.664 5.095z"/><path fill="#11153a" d="M335.988 392.84h35.968l1.588-15.163 9.816-86.566-45.524-1.523z"/><path fill="#070d2b" d="m363.579 291.11 9.965 86.567 9.816-86.566z"/><path fill="#11153a" d="m379.798 392.836-11.573-101.722h51.127v101.722z"/><path fill="#3a6dc9" d="m285.588 277.478 11.841 19.27 50.92-30.052 23.839-59.919-23.84-29.207c-6.426 6.687-15.806 37.143-28.399 62.282l-34.36 37.626z"/><path fill="#3a6dc9" d="M419.829 286.523c-.418-11.302-.799-25.242-.362-30.22.947-10.828 5.191-26.606 7.56-41.465 2.163-13.503 2.767-26.244-2.062-33.823-4.477-7.03-27.917-11.487-27.917-11.487l-26.43-1.579s-18.245 4.046-22.266 9.618c-8.73 12.073-8.046 59.745-8.046 59.745s-3.826 57.42-4.318 64.645h84.5c-.102-1.996-.39-8.172-.659-15.434z"/><path fill="#06112d" d="M355.925 96.744s-3.226 17.524 7.544 24.063c8.39 5.094 9.628-11.784 9.766-19.494.025-1.425-1.654-2.2-2.726-1.26l-7.232 6.33"/><path fill="#fec3bd" d="M376.224 181.552c11.023-.48 20.81-11.686 20.826-12.025.408-8.062 2.277-26.672 4.115-32.434.408-1.27-.784-2.462-2.054-2.062l-27.072 8.44a1.637 1.637 0 0 0-1.092 1.977 33.28 33.28 0 0 1 .754 3.908c.061.462.107.915.154 1.37.346 3.854.03 7.362-.393 9.931-.092.562-.208 1.539-.346 2.662v.008c-.33 2.885-.447 4.61-.57 5.032-.061.208-.55 13.464 5.678 13.193z"/><path fill="#f18b89" d="M371.116 163.319v.008s15-5.528 17.648-10.278c3.495-6.27-14.717-3.231-14.717-3.231s-.954.392-2.192.907c.346 3.855.03 7.363-.393 9.932-.092.562-.208 1.539-.346 2.662z"/><path fill="#fec3bd" d="M367.957 158.306c14.89 4.013 28.185-10.981 31.824-17.22v-.008a37.649 37.649 0 0 0 1.306-2.434c.126-.261.314-.477.555-.638 1.923-1.288 10.634-7.502 8.448-13.014-1.429-3.588-3.869-4.013-5.666-3.736-1.057.162-1.978-.768-1.836-1.827 3.873-28.786-27.833-27.54-36.557-14.547-.385.57-.777 1.27-1.17 2.085-5.677 11.609-12.9 47.027 3.096 51.339z"/><path fill="#06112d" d="M358.084 108.434c3.718 12.309 34.234-4.106 32.95 1.41-.945 4.078 2.871 5.49 4.925 5.95a1.632 1.632 0 0 1 1.269 1.55l.242 8.253a1.644 1.644 0 0 0 3.186.518l1.272-3.465c.156-.426.479-.774.898-.946 1.536-.627 5.329-1.574 7.264 3.288 2.186 5.512-6.525 11.726-8.448 13.014-.24.161-.43.377-.555.638-.228.47-.664 1.33-1.306 2.434v.008l-1.396 5.46c-.398 1.555-.573 13.08-.573 13.08s23.416-30.638 22.073-45.714c-1.857-20.866-12.819-10.992-14.488-19.07s-14.233-11.285-22.441-9.616c-8.201 1.67-22.118 2.431-25.45 6.54-2.938 3.615-1.255 10.6.578 16.668z"/><ellipse cx="380.697" cy="127.522" fill="#06112d" rx="2.731" ry="1.821" transform="rotate(-87.377 380.697 127.522)"/><path fill="#06112d" d="M383.463 123.468a.498.498 0 0 1-.31-.109c-2.844-2.266-4.493-.893-4.561-.834a.502.502 0 0 1-.704-.045.497.497 0 0 1 .038-.7c.093-.085 2.314-2.02 5.85.797a.5.5 0 0 1-.313.891z"/><ellipse cx="365.311" cy="127.522" fill="#06112d" rx="2.731" ry="1.821" transform="rotate(-87.377 365.311 127.522)"/><path fill="#06112d" d="M368.078 123.468a.498.498 0 0 1-.311-.109c-2.844-2.266-4.492-.893-4.56-.834a.502.502 0 0 1-.705-.045.497.497 0 0 1 .038-.7c.093-.085 2.314-2.02 5.85.797a.5.5 0 0 1-.312.891z"/><path fill="#f18b89" d="M369.875 141.806a.498.498 0 0 1-.333-.126c-.726-.647-1.14-1.513-1.168-2.441a3.309 3.309 0 0 1 .99-2.449c.254-.255.54-.474.817-.686.16-.123.322-.246.474-.376.99-.84 1.658-2.032 1.932-3.444.254-1.306.17-2.675.09-3.998a.5.5 0 1 1 .997-.061c.085 1.386.173 2.819-.105 4.25-.318 1.637-1.101 3.026-2.266 4.015-.165.14-.34.274-.514.408-.25.192-.502.383-.717.598-.47.471-.718 1.08-.698 1.713.019.65.315 1.262.834 1.724a.5.5 0 0 1-.333.873zM374.415 149.365c-.082 0-.165-.001-.248-.004a.5.5 0 0 1 .037-1c2.093.076 4.193-.995 5.357-2.734a.5.5 0 1 1 .83.556c-1.305 1.952-3.63 3.182-5.976 3.182z"/><path fill="#1c5ab5" d="m348.352 257.913 4.807 25.917 24.49.984 42.18 1.71c-.418-11.303-.799-25.243-.362-30.22.947-10.829 5.191-26.607 7.56-41.466l-18.611-21.657s-5.331 10.438-7.189 18.147c-1.857 7.698-3.157 34.259-3.157 34.259l-49.718 12.326z"/><path fill="#fec3bd" d="M351.916 263.206s-16.23-11.698-18.955-9.962c-2.691 1.723 4.416 10.206 4.416 10.206"/><path fill="#06112d" d="M329.937 244.5h-2.643l7.865 44.383h2.643c2.201 0 3.668-1.783 3.278-3.984l-6.45-36.407c-.392-2.21-2.492-3.993-4.693-3.993z"/><path fill="#0e1738" d="m332.119 248.492 6.451 36.407c.39 2.201-1.077 3.984-3.278 3.984h-20.618c-2.201 0-4.3-1.783-4.69-3.984l-6.452-36.407c-.391-2.21 1.076-3.993 3.277-3.993h20.618c2.201 0 4.3 1.784 4.692 3.993z"/><path fill="#fec3bd" d="M337.377 263.45c-1.916-.219-16.17-1.819-15.22 1.75.345 1.296 3.168 2.785 4.427 3.098-3.888.11-9.4 1.303-9.034 3.078.51 2.471 5.23 2.218 6.876 2.055-1.673.226-6.47 1.081-5.474 3.394.606 1.407 6.382 1.825 8.199 1.885-1.323.434-6.344 1.581-4.08 3.9 2.914 2.983 31.627-1.34 31.627-1.34l-2.782-18.064"/><path fill="#3a6dc9" d="M432.713 272.76c-9.287 9.208-79.558 11.067-79.558 11.067l-4.803-25.914 54.655-10.186s-.5-35.561 2.347-46.865c4.143-16.465 19.614-19.847 19.614-19.847 1.259 1.459 7.443 8.47 9.673 17.293 6.07 24.01 7.254 65.35-1.928 74.453z"/><path fill="#fec3bd" d="M275.98 311.524c4.192-.716 22.627-17.992 22.627-17.992l-9.134-14.8s-18.932 2.105-20.263 5.12c-1.308 2.986 8.063 3.316 8.063 3.316-1.75.9-14.75 7.609-11.923 10.1 1.025.905 4.264.57 5.51.123-3.237 2.294-7.24 6.427-5.924 7.726 1.83 1.808 5.694-1.08 6.998-2.149-1.291 1.139-4.877 4.58-2.724 5.978 1.31.852 4.53-1.539 6.106-2.517-.877 1.117-2.067 5.565.664 5.095z"/><path fill="#11153a" d="M335.988 392.84h35.968l1.588-15.163 9.816-86.566-45.524-1.523z"/><path fill="#070d2b" d="m363.579 291.11 9.965 86.567 9.816-86.566z"/><path fill="#11153a" d="m379.798 392.836-11.573-101.722h51.127v101.722z"/><path fill="#3a6dc9" d="m285.588 277.478 11.841 19.27 50.92-30.052 8.664-21.778 15.175-38.14-23.84-29.208c-6.426 6.687-15.806 37.138-28.399 62.287l-34.36 37.62z"/><path fill="#1c5ab5" d="m297.429 296.748 50.92-30.052 8.664-21.778c-3.77-11.896-15.091-42.747-15.091-42.747l-14.627 53.093-29.866 41.484z"/><path fill="#3a6dc9" d="M419.829 286.523c-.418-11.302-.799-25.242-.362-30.22.947-10.828 5.191-26.606 7.56-41.465 2.163-13.503 2.767-26.244-2.062-33.823-4.477-7.03-27.917-11.487-27.917-11.487l-26.43-1.579s-18.245 4.046-22.266 9.618c-8.73 12.073-8.046 59.745-8.046 59.745s-3.826 57.42-4.318 64.645h84.5c-.102-1.996-.39-8.172-.659-15.434z"/><path fill="#06112d" d="M355.925 96.744s-3.226 17.524 7.544 24.063c8.39 5.094 9.628-11.784 9.766-19.494.025-1.425-1.654-2.2-2.726-1.26l-7.232 6.33"/><path fill="#fec3bd" d="M376.224 181.552c11.023-.48 20.81-11.686 20.826-12.025.408-8.062 2.277-26.672 4.115-32.434.408-1.27-.784-2.462-2.054-2.062l-27.072 8.44a1.637 1.637 0 0 0-1.092 1.977 33.28 33.28 0 0 1 .754 3.908c.061.462.107.915.154 1.37.346 3.854.03 7.362-.393 9.931-.092.562-.208 1.539-.346 2.662v.008c-.33 2.885-.447 4.61-.57 5.032-.061.208-.55 13.464 5.678 13.193z"/><path fill="#f18b89" d="M371.116 163.319v.008s15-5.528 17.648-10.278c3.495-6.27-14.717-3.231-14.717-3.231s-.954.392-2.192.907c.346 3.855.03 7.363-.393 9.932-.092.562-.208 1.539-.346 2.662z"/><path fill="#fec3bd" d="M367.957 158.306c14.89 4.013 28.185-10.981 31.824-17.22v-.008a37.649 37.649 0 0 0 1.306-2.434c.126-.261.314-.477.555-.638 1.923-1.288 10.634-7.502 8.448-13.014-1.429-3.588-3.869-4.013-5.666-3.736-1.057.162-1.978-.768-1.836-1.827 3.873-28.786-27.833-27.54-36.557-14.547-.385.57-.777 1.27-1.17 2.085-5.677 11.609-12.9 47.027 3.096 51.339z"/><path fill="#06112d" d="M358.084 108.434c3.718 12.309 34.234-4.106 32.95 1.41-.945 4.078 2.871 5.49 4.925 5.95a1.632 1.632 0 0 1 1.269 1.55l.242 8.253a1.644 1.644 0 0 0 3.186.518l1.272-3.465c.156-.426.479-.774.898-.946 1.536-.627 5.329-1.574 7.264 3.288 2.186 5.512-6.525 11.726-8.448 13.014-.24.161-.43.377-.555.638-.228.47-.664 1.33-1.306 2.434v.008l-1.396 5.46c-.398 1.555-.573 13.08-.573 13.08s23.416-30.638 22.073-45.714c-1.857-20.866-12.819-10.992-14.488-19.07s-14.233-11.285-22.441-9.616c-8.201 1.67-22.118 2.431-25.45 6.54-2.938 3.615-1.255 10.6.578 16.668z"/><ellipse cx="380.697" cy="127.522" fill="#06112d" rx="2.731" ry="1.821" transform="rotate(-87.377 380.697 127.522)"/><path fill="#06112d" d="M383.463 123.468a.498.498 0 0 1-.31-.109c-2.844-2.266-4.493-.893-4.561-.834a.502.502 0 0 1-.704-.045.497.497 0 0 1 .038-.7c.093-.085 2.314-2.02 5.85.797a.5.5 0 0 1-.313.891z"/><ellipse cx="365.311" cy="127.522" fill="#06112d" rx="2.731" ry="1.821" transform="rotate(-87.377 365.311 127.522)"/><path fill="#06112d" d="M368.078 123.468a.498.498 0 0 1-.311-.109c-2.844-2.266-4.492-.893-4.56-.834a.502.502 0 0 1-.705-.045.497.497 0 0 1 .038-.7c.093-.085 2.314-2.02 5.85.797a.5.5 0 0 1-.312.891z"/><path fill="#f18b89" d="M369.875 141.806a.498.498 0 0 1-.333-.126c-.726-.647-1.14-1.513-1.168-2.441a3.309 3.309 0 0 1 .99-2.449c.254-.255.54-.474.817-.686.16-.123.322-.246.474-.376.99-.84 1.658-2.032 1.932-3.444.254-1.306.17-2.675.09-3.998a.5.5 0 1 1 .997-.061c.085 1.386.173 2.819-.105 4.25-.318 1.637-1.101 3.026-2.266 4.015-.165.14-.34.274-.514.408-.25.192-.502.383-.717.598-.47.471-.718 1.08-.698 1.713.019.65.315 1.262.834 1.724a.5.5 0 0 1-.333.873zM374.415 149.365c-.082 0-.165-.001-.248-.004a.5.5 0 0 1 .037-1c2.093.076 4.193-.995 5.357-2.734a.5.5 0 1 1 .83.556c-1.305 1.952-3.63 3.182-5.976 3.182z"/><path fill="#1c5ab5" d="m348.352 257.913 4.807 25.917 24.49.984 42.18 1.71c-.418-11.303-.799-25.243-.362-30.22.947-10.829 5.191-26.607 7.56-41.466l-18.611-21.657s-5.331 10.438-7.189 18.147c-1.857 7.698-3.157 34.259-3.157 34.259l-49.718 12.326z"/><path fill="#fec3bd" d="M351.916 263.206s-16.23-11.698-18.955-9.962c-2.691 1.723 4.416 10.206 4.416 10.206"/><path fill="#06112d" d="M329.937 244.5h-2.643l7.865 44.383h2.643c2.201 0 3.668-1.783 3.278-3.984l-6.45-36.407c-.392-2.21-2.492-3.993-4.693-3.993z"/><path fill="#0e1738" d="m332.119 248.492 6.451 36.407c.39 2.201-1.077 3.984-3.278 3.984h-20.618c-2.201 0-4.3-1.783-4.69-3.984l-6.452-36.407c-.391-2.21 1.076-3.993 3.277-3.993h20.618c2.201 0 4.3 1.784 4.692 3.993z"/><path fill="#fec3bd" d="M337.377 263.45c-1.916-.219-16.17-1.819-15.22 1.75.345 1.296 3.168 2.785 4.427 3.098-3.888.11-9.4 1.303-9.034 3.078.51 2.471 5.23 2.218 6.876 2.055-1.673.226-6.47 1.081-5.474 3.394.606 1.407 6.382 1.825 8.199 1.885-1.323.434-6.344 1.581-4.08 3.9 2.914 2.983 31.627-1.34 31.627-1.34l-2.782-18.064"/><path fill="#3a6dc9" d="M432.713 272.76c-9.287 9.208-79.558 11.067-79.558 11.067l-4.803-25.914 54.655-10.186s-.5-35.561 2.347-46.865c4.143-16.465 19.614-19.847 19.614-19.847 1.259 1.459 7.443 8.47 9.673 17.293 6.07 24.01 7.254 65.35-1.928 74.453z"/><path fill="#82cafa" d="M275.625 162.805v18.124a4.897 4.897 0 0 0 4.896 4.895h37.817c.826 0 1.645.213 2.374.613l8.244 4.573v-28.205a4.897 4.897 0 0 0-4.896-4.896h-43.54a4.897 4.897 0 0 0-4.895 4.896z"/><path fill="#fff" d="M281.643 166.154h41.294v2.729h-41.294z" transform="rotate(-180 302.29 167.518)"/><path fill="#fff" d="M281.642 172.261h14.09v2.729h-14.09zM311.381 172.261h11.557v2.729h-11.557zM302.243 172.261h4.945v2.729h-4.945z"/><path fill="#37c092" d="M281.555 112.583v18.124a4.897 4.897 0 0 1-4.896 4.895H238.84c-.825 0-1.644.213-2.373.613l-8.244 4.573v-28.205a4.897 4.897 0 0 1 4.896-4.896h43.539a4.897 4.897 0 0 1 4.896 4.896z"/><path fill="#fff" d="M234.242 115.932h41.294v2.729h-41.294zM261.448 122.039h14.09v2.729h-14.09zM234.242 122.039h11.557v2.729h-11.557zM249.992 122.039h4.945v2.729h-4.945z"/><path fill="#37c092" d="M45.726 347.495c-2.05 2.39-1.385 6.368-.16 9.267.725 1.723 1.859 3.465.997 5.355-.364.801-1.04 1.426-1.846 1.787a4.458 4.458 0 0 1-2.099.38 5.071 5.071 0 0 1-.548-.056c-1.146-.188-2.24-.757-3.128-1.522-1.114-.953-2.143-2.44-2.804-4.03-1.113-2.69-3.308-4.793-6.092-5.654-.108-.036-.22-.069-.328-.104a22.151 22.151 0 0 1-9-5.604c-1.646-1.698-3.091-3.873-2.59-6.312.268-1.301 1.193-2.399 2.478-2.731 1.582-.409 2.704.557 3.713 1.486.87.8 1.802 1.646 3.064 1.638.609 0 1.206-.284 1.522-.805.52-.865.02-1.766-.545-2.46a10.12 10.12 0 0 0-5.182-3.331c-2.127-.565-4.462-.441-6.24-1.995-.805-.705-1.25-1.766-1.03-2.812.497-2.359 3.845-2.098 4.298-4.517.16-.853-.116-1.719-.649-2.407-.961-1.242-2.475-1.77-3.945-2.2-1.073-.316-2.195-.616-3.012-1.43a2.612 2.612 0 0 1-.653-1.036c-.552-1.723 1.062-2.836 2.52-2.816 1.137.016 2.194.545 3.204 1.065-1.943-2.691-3.885-5.379-5.828-8.066-.645-.893-1.305-1.822-1.53-2.904-.224-1.077.108-2.355 1.07-2.895.753-.429 1.722-.305 2.495.092.769.4 1.382 1.041 1.982 1.67l8.355 8.763c-.348-1.354-.276-2.647-.092-4.033.184-1.386 1.041-2.775 2.383-3.16 1.205-.348 2.527.192 3.412 1.077.885.886 1.402 2.063 1.83 3.24 1.53 4.198 1.515 8.563 1.162 13.017 1.35-2.431 2.003-5.319 4.514-6.508 1.318-.625 2.527 1.502 3.024 2.871.5 1.366.508 2.856.512 4.31l.024 10.313c1.25-1.51 2.556-3.068 4.498-3.677.881-.276 1.838-.292 2.692.06 2.05.845 2.363 3.117 2.242 5.087a19.793 19.793 0 0 1-4.69 11.587z"/><path fill="#238a6f" d="M42.618 364.284a5.071 5.071 0 0 1-.548-.056c.9-14.595-6.689-29.458-13.245-39.386-7.161-10.85-14.667-18.308-14.739-18.38a.278.278 0 0 1-.004-.392.274.274 0 0 1 .393 0c.076.072 7.617 7.57 14.814 18.467 6.605 10.005 14.255 24.988 13.33 39.747z"/><path fill="#238a6f" d="M28.727 324.118a.276.276 0 0 1-.459-.256c.013-.07 1.316-6.935.318-9.914a.277.277 0 1 1 .525-.176c1.044 3.117-.244 9.907-.3 10.194a.275.275 0 0 1-.084.152z"/><path fill="#238a6f" d="M28.726 324.119a.277.277 0 0 1-.354.015c-.054-.041-5.445-4.129-8.643-3.716a.277.277 0 1 1-.07-.549c3.423-.441 8.82 3.651 9.05 3.825a.277.277 0 0 1 .017.425zM35.617 335.886a.276.276 0 0 1-.44-.315c.035-.079 3.444-7.94 2.168-12.016a.276.276 0 1 1 .528-.165c1.338 4.273-2.044 12.073-2.189 12.403a.274.274 0 0 1-.067.093zM34.972 334.614a.277.277 0 0 1-.327.034c-.077-.045-7.717-4.51-11.96-3.715a.277.277 0 0 1-.103-.543c4.448-.834 12.024 3.592 12.344 3.78a.277.277 0 0 1 .046.444zM39.563 345.227a.277.277 0 0 1-.379-.403l.054-.052c2.122-2.051 5.854-6.177 7.013-10.768a.277.277 0 0 1 .536.136c-1.191 4.723-5 8.938-7.164 11.03l-.054.051a.233.233 0 0 1-.006.006zM41.56 352.387a.277.277 0 0 1-.348.02c-.112-.08-11.304-8.072-17.045-7.104a.277.277 0 1 1-.092-.546c5.968-1.006 16.994 6.865 17.46 7.2a.277.277 0 0 1 .025.43z"/><path fill="#27aa7b" d="M51.12 346.423c-.462-3.217.444-6.48 2.625-8.889.086-.095.172-.19.256-.286a24.67 24.67 0 0 0 5.443-10.49c.615-2.563.765-5.472-1.102-7.526-.995-1.095-2.51-1.622-3.93-1.21-1.752.508-2.273 2.072-2.714 3.535-.381 1.263-.794 2.604-2.007 3.315-.586.344-1.318.413-1.917.091-.992-.532-1.024-1.683-.874-2.666a11.271 11.271 0 0 1 3.073-6.142c1.717-1.75 4.027-2.958 4.85-5.462.371-1.131.194-2.402-.611-3.279-1.819-1.98-4.88.171-6.691-1.89-.638-.726-.865-1.715-.746-2.674.214-1.74 1.368-3.107 2.531-4.355.853-.915 1.755-1.837 2.08-3.081.115-.445.136-.916.034-1.365-.448-1.967-2.63-2.117-4.018-1.27-1.08.66-1.792 1.77-2.467 2.842l1.003-11.048c.11-1.223.217-2.49-.181-3.652s-1.445-2.196-2.673-2.171c-.967.019-1.827.687-2.339 1.508-.512.822-.737 1.784-.954 2.727l-3.028 13.153c-.435-1.496-1.24-2.696-2.205-3.918-.966-1.222-2.577-2.068-4.084-1.676-1.35.352-2.312 1.622-2.657 2.973-.345 1.35-.172 2.778.085 4.148.918 4.894 3.416 9.071 6.288 13.14-2.679-1.561-4.944-3.962-8.031-3.673-1.615.152-1.567 2.878-1.268 4.473s1.138 3.028 1.962 4.426l5.84 9.903c-2.057-.74-4.195-1.491-6.403-.97-1.002.236-1.93.765-2.548 1.587-1.487 1.976-.494 4.333.741 6.154a22.087 22.087 0 0 0 11.087 8.444c3.323 1.128 4.946 5.32 5.422 8.796.283 2.062.186 4.379 2.085 5.7.807.562 1.81.778 2.786.665 2.43-.28 4.119-2.25 4.86-4.43.525-1.546.67-3.56.397-5.457z"/><path fill="#238a6f" d="M48.473 355.89a.309.309 0 0 0 .316-.478c-9.348-13.506-10.54-32.248-9.893-45.592.702-14.479 3.657-25.894 3.687-26.007a.309.309 0 0 0-.597-.157c-.03.115-3.002 11.592-3.706 26.134-.651 13.44.555 32.325 10.002 45.973a.308.308 0 0 0 .191.126z"/><path fill="#238a6f" d="M38.58 309.068a.308.308 0 0 0 .294-.507c-.052-.058-5.204-5.902-5.942-9.326a.308.308 0 1 0-.603.13c.772 3.582 5.866 9.361 6.083 9.606a.307.307 0 0 0 .168.097z"/><path fill="#238a6f" d="M38.58 309.068a.309.309 0 0 0 .349-.187c.028-.07 2.874-7.054 6.175-8.477a.308.308 0 1 0-.244-.566c-3.534 1.523-6.384 8.516-6.503 8.813a.309.309 0 0 0 .224.417zM38.662 324.27a.308.308 0 0 0 .243-.552c-.078-.057-7.816-5.657-8.91-10.29a.308.308 0 1 0-.6.141c1.147 4.859 8.824 10.416 9.15 10.65a.306.306 0 0 0 .117.051zM38.558 322.683a.309.309 0 0 0 .333-.154c.048-.086 4.836-8.711 9.357-10.36a.309.309 0 0 0-.21-.58c-4.74 1.728-9.488 10.28-9.688 10.643a.309.309 0 0 0 .208.45zM40.19 335.47a.309.309 0 0 0 .133-.602l-.08-.019c-3.202-.76-9.127-2.595-12.847-6.339a.309.309 0 0 0-.438.435c3.828 3.852 9.877 5.729 13.141 6.504l.08.02c.004 0 .007 0 .01.002zM42.345 343.472a.309.309 0 0 0 .345-.179c.062-.141 6.25-14.167 12.306-16.503a.308.308 0 1 0-.222-.576c-6.295 2.429-12.393 16.245-12.65 16.832a.308.308 0 0 0 .22.426z"/><path fill="#37c092" d="M74.375 327.309c-.553 1.346-1.55 2.451-2.527 3.528-2.307 2.548-4.618 5.095-6.93 7.642 1.943-.276 3.958-.549 5.804.309.837.392 1.554 1.025 1.95 1.858.946 2.006-.352 3.897-1.77 5.27a19.835 19.835 0 0 1-11.274 5.407c-3.12.385-5.31 3.773-6.36 6.741-.62 1.758-.957 3.813-2.864 4.63-.813.344-1.734.352-2.57.076a4.404 4.404 0 0 1-1.807-1.13 3.985 3.985 0 0 1-.369-.416c-.72-.909-1.145-2.066-1.29-3.228-.18-1.454.06-3.248.646-4.866.989-2.74.785-5.772-.693-8.283a22.115 22.115 0 0 1-3.048-10.501c-.076-2.363.32-4.946 2.335-6.412 1.07-.781 2.499-.97 3.672-.349 1.446.761 1.618 2.231 1.739 3.597.108 1.177.228 2.431 1.161 3.276.453.409 1.085.6 1.67.429.965-.289 1.206-1.294 1.25-2.183a10.118 10.118 0 0 0-1.582-5.956c-1.194-1.846-3.004-3.328-3.268-5.68-.125-1.056.264-2.142 1.13-2.766 1.958-1.41 4.257 1.037 6.223-.445.689-.525 1.07-1.35 1.137-2.215.129-1.566-.636-2.976-1.43-4.285-.584-.958-1.209-1.93-1.269-3.084-.02-.413.048-.83.22-1.206.75-1.646 2.696-1.382 3.757-.384.833.777 1.254 1.878 1.654 2.943.373-3.296.75-6.592 1.126-9.888.124-1.093.26-2.227.82-3.172.561-.95 1.667-1.67 2.744-1.426.845.196 1.478.937 1.778 1.754.3.813.325 1.698.345 2.568.092 4.033.18 8.07.272 12.103.653-1.234 1.578-2.143 2.648-3.04 1.069-.901 2.639-1.35 3.893-.733 1.121.557 1.734 1.846 1.794 3.096.056 1.25-.353 2.471-.83 3.629-1.693 4.133-4.65 7.345-7.91 10.4 2.636-.884 5.063-2.582 7.723-1.77 1.39.43.853 2.816.3 4.162z"/><path fill="#238a6f" d="M62.944 323.28c-1.858 11.847-6.3 28.076-16.917 38.36a3.985 3.985 0 0 1-.369-.416c10.498-10.177 14.895-26.277 16.738-38.028 2.014-12.845 1.49-23.41 1.486-23.514a.277.277 0 0 1 .552-.032c.004.108.533 10.73-1.49 23.63z"/><path fill="#238a6f" d="M62.812 322.593a.276.276 0 0 1-.166-.498c.056-.042 5.643-4.24 6.913-7.114a.277.277 0 1 1 .506.224c-1.328 3.006-6.853 7.158-7.088 7.333a.275.275 0 0 1-.165.055z"/><path fill="#238a6f" d="M62.811 322.593a.277.277 0 0 1-.272-.227c-.012-.067-1.243-6.719-3.885-8.568a.277.277 0 1 1 .317-.454c2.828 1.98 4.062 8.64 4.113 8.923a.277.277 0 0 1-.273.326zM59.979 335.933a.276.276 0 0 1-.113-.53c.079-.035 7.893-3.55 9.695-7.421a.276.276 0 1 1 .502.233c-1.89 4.06-9.643 7.547-9.972 7.694a.275.275 0 0 1-.112.024zM60.359 334.557a.277.277 0 0 1-.265-.195c-.026-.085-2.666-8.531-6.338-10.801a.277.277 0 0 1 .29-.471c3.85 2.38 6.467 10.754 6.577 11.109a.277.277 0 0 1-.264.358zM56.603 345.494a.277.277 0 0 1-.008-.553l.075-.002c2.95-.087 8.488-.623 12.436-3.235a.277.277 0 0 1 .305.461c-4.062 2.689-9.716 3.239-12.725 3.327l-.074.002a.29.29 0 0 1-.009 0zM53.257 352.132a.277.277 0 0 1-.27-.22c-.03-.135-2.919-13.58-7.814-16.732a.277.277 0 1 1 .3-.465c5.088 3.276 7.936 16.52 8.055 17.083a.277.277 0 0 1-.271.334z"/><path fill="#fcc283" d="M62.83 356.238v23.696c0 7.062-5.722 12.783-12.784 12.783H40.009c-7.062 0-12.793-5.721-12.793-12.783v-23.696a3.11 3.11 0 0 1 3.108-3.108H59.73a3.101 3.101 0 0 1 3.099 3.108z"/><path fill="#fe8b70" d="M62.834 358.606v-2.545a2.93 2.93 0 0 0-2.931-2.931H30.15a2.93 2.93 0 0 0-2.93 2.93v2.546h35.614z"/></svg>